<svg width="60" height="52" viewBox="0 0 60 52" fill="none" xmlns="http://www.w3.org/2000/svg">
<path d="M52.5605 2.06458H7.43924C4.17913 2.06458 1.53628 4.70742 1.53628 7.96753V44.0322C1.53628 47.2923 4.17913 49.9352 7.43924 49.9352H52.5605C55.8207 49.9352 58.4635 47.2923 58.4635 44.0322V7.96753C58.4635 4.70742 55.8207 2.06458 52.5605 2.06458Z" stroke="#FF596D" stroke-width="3.07277"/>
<path d="M22.4799 23.0891C25.8293 23.0891 28.5446 20.3738 28.5446 17.0244C28.5446 13.675 25.8293 10.9597 22.4799 10.9597C19.1305 10.9597 16.4152 13.675 16.4152 17.0244C16.4152 20.3738 19.1305 23.0891 22.4799 23.0891Z" stroke="#FF596D" stroke-width="3.07277"/>
<path d="M1.94065 38.2104L9.21828 31.2562C9.73042 30.798 11.1913 29.8815 12.938 29.8815C14.6846 29.8815 16.0377 30.798 16.4959 31.2562L18.8409 33.5203C19.3261 33.9517 20.6199 35.1376 22.7223 35.1376C24.663 35.1376 25.849 33.9517 26.442 33.5203L41.0781 18.6416C41.7789 17.86 43.7304 16.2966 45.9299 16.2966C48.1293 16.2966 50.1886 17.86 50.9434 18.6416L58.221 25.9193" stroke="#FF596D" stroke-width="3.07277"/>
</svg>
