<?xml version="1.0" encoding="UTF-8"?>
<svg id="Layer_3" data-name="Layer 3" xmlns="http://www.w3.org/2000/svg" viewBox="0 0 750 500">
  <defs>
    <style>
      .cls-1 {
        fill: #ec4c2f;
      }

      .cls-1, .cls-2, .cls-3, .cls-4, .cls-5, .cls-6, .cls-7, .cls-8, .cls-9, .cls-10, .cls-11, .cls-12, .cls-13, .cls-14, .cls-15 {
        stroke-width: 0px;
      }

      .cls-16 {
        opacity: .5;
      }

      .cls-2 {
        fill: #f0687e;
      }

      .cls-3 {
        fill: #471c0e;
      }

      .cls-4 {
        fill: #a7baa1;
      }

      .cls-5 {
        fill: #ce3c4c;
      }

      .cls-6 {
        fill: #ffbdc5;
        fill-rule: evenodd;
      }

      .cls-17 {
        fill: none;
        stroke: #0b0b0b;
        stroke-miterlimit: 10;
        stroke-width: 2px;
      }

      .cls-7 {
        fill: #fff;
      }

      .cls-8 {
        fill: #f3e3d5;
      }

      .cls-9 {
        fill: #f5f9fc;
      }

      .cls-10 {
        fill: #f7ada0;
      }

      .cls-11 {
        fill: #ea4657;
      }

      .cls-12 {
        fill: #0b0b0b;
      }

      .cls-13 {
        fill: #006c5f;
      }

      .cls-14 {
        fill: #da7d8a;
      }

      .cls-15 {
        fill: #dc9067;
      }
    </style>
  </defs>
  <path class="cls-6" d="m417.53,483.03c-75.51-1.1-150.99-2.95-213.12-39.46-77.73-45.67-180.84-104.65-165.94-183.24,15-79.12,148.61-83.96,225.49-130.79,57.35-34.93,90.86-102.26,161.71-105.05,72.98-2.87,134.2,44.3,181.47,91.54,43.81,43.78,61.8,98.51,65.77,155.55,4.38,62.98,10.65,134.15-42.55,178.21-53.41,44.23-137.74,34.34-212.82,33.24Z"/>
  <g>
    <g>
      <g>
        <g>
          <g>
            <path class="cls-10" d="m517.44,314.93c-4.9,5.15-22.46,12.77-28.01,11.9-5.54-.81-14.81-.5-15.96-.9-1.32,0-58.5,34.84-95.89,46.4-11.48,3.56-21.17,4.9-26.72,2.35-39.04-17.98-81.44-102.81-90.71-125.35-16.61-40.33-11.85-73.96-6.78-75.56,17.81-5.49,47.94,30.81,65.25,54.67,11.48,15.85,60.01,76.96,61.36,77.85.59.42,3,.36,6.64.03,20.67-2.02,81.83-14.37,87.99-15.21,9.91-1.4,22.85,1.23,33.02,2.1,10.14.9,12.38,19.02,9.8,21.7Z"/>
            <path class="cls-14" d="m377.58,372.34c-11.48,3.56-21.17,4.9-26.72,2.35-39.04-17.98-81.44-102.81-90.71-125.35-16.61-40.33-11.85-73.96-6.78-75.56,17.81-5.49,47.94,30.81,65.25,54.67,11.48,15.85,60.01,76.96,61.36,77.85.59.42,3,.36,6.64.03-7.39,20.98-9.47,43.77-9.05,66.01Z"/>
          </g>
          <g>
            <path class="cls-2" d="m379.99,303.08c-.06.95-1.09,2.77-2.88,5.54-.62.95-1.29,2.02-2.1,3.19-.03.06-.08.14-.14.22-.95,1.46-2.04,3.08-3.22,4.9-.56.9-1.18,1.82-1.79,2.77-.17.25-.31.5-.48.76-1.51,2.38-3.14,5.01-4.87,7.9-.25.42-.5.84-.76,1.29-.25.42-.5.84-.76,1.26-.11.2-.25.42-.36.64-1.43,2.46-2.91,5.1-4.45,7.9-.14.25-.25.5-.39.76-.87,1.62-1.76,3.3-2.66,5.04-.48.92-.98,1.88-1.46,2.86-.53,1.04-1.06,2.1-1.6,3.19-.06.11-.11.25-.17.36-1.18,2.41-2.35,4.93-3.56,7.53-.11.25-.22.5-.34.76-1.15,2.55-2.32,5.18-3.44,7.9-.2.42-.39.87-.56,1.32-.25.59-.5,1.2-.76,1.82,0,0-.03.03-.03.06-.67,1.62-1.32,3.28-1.99,4.96-.2.48-2.49-.48-5.85-2.58-1.01-.62-2.07-1.34-3.22-2.16-.11-.08-.2-.14-.31-.22-1.32-.95-2.74-2.02-4.17-3.19-1.12-.92-2.27-1.93-3.42-3-.25-.2-.5-.45-.76-.67-1.4-1.32-2.8-2.74-4.17-4.23-.22-.25-.45-.5-.67-.76-1.04-1.15-2.07-2.38-3.02-3.64-.81-1.06-1.6-2.16-2.35-3.28-.22-.34-.42-.64-.64-.98-.08-.11-.14-.22-.22-.34-.62-.92-1.23-1.88-1.88-2.86-1.62-2.49-3.3-5.12-5.04-7.9-.17-.25-.31-.5-.48-.76-.17-.28-.34-.53-.5-.81-.25-.39-.5-.78-.76-1.2-1.18-1.9-2.38-3.86-3.61-5.88-.64-1.06-1.29-2.13-1.93-3.19-.76-1.29-1.54-2.58-2.32-3.89-.78-1.32-1.57-2.66-2.35-4-.14-.25-.31-.5-.45-.76-.14-.25-.28-.48-.42-.73-1.37-2.35-2.74-4.73-4.12-7.17-.62-1.06-1.2-2.13-1.82-3.19-.64-1.18-1.29-2.35-1.96-3.53-.25-.45-.5-.92-.76-1.37-.53-.98-1.09-1.99-1.62-3-.14-.25-.28-.5-.42-.76-1.43-2.6-2.86-5.24-4.2-7.9-.56-1.01-1.09-2.04-1.62-3.05-.03-.06-.06-.08-.08-.14-1.06-2.04-2.1-4.09-3.14-6.13-.31-.59-.59-1.18-.87-1.76-.14-.25-.25-.5-.39-.76-1.32-2.63-2.6-5.29-3.86-7.9-.5-1.06-1.01-2.13-1.48-3.19-.45-.92-.87-1.82-1.29-2.74-.25-.56-.5-1.12-.76-1.65-.53-1.18-1.06-2.35-1.57-3.5-.11-.25-.22-.5-.31-.76-1.18-2.66-2.3-5.32-3.36-7.9-.45-1.06-.87-2.13-1.26-3.19-.5-1.2-.95-2.41-1.4-3.58-.53-1.46-1.06-2.91-1.57-4.31-.08-.25-.17-.5-.25-.76-.5-1.4-.95-2.77-1.37-4.12-.17-.45-.28-.87-.42-1.29-.25-.78-.5-1.62-.73-2.49-.31-1.01-.59-2.07-.87-3.19-.62-2.46-1.23-5.12-1.76-7.9-.06-.25-.11-.5-.14-.76-.5-2.55-.92-5.21-1.29-7.9-.17-1.06-.31-2.16-.42-3.22-.34-2.63-.59-5.26-.73-7.87-.03-.25-.06-.5-.06-.76-.17-2.72-.22-5.35-.17-7.9,0-1.09.06-2.18.11-3.22.14-2.8.45-5.46.95-7.87.03-.25.08-.5.17-.76.67-3.14,1.65-5.82,3.02-7.9.53-.81,1.09-1.51,1.74-2.13.2-.17.36-.34.59-.45.36-.28.81-.5,1.26-.64.59-.2,1.23-.31,1.93-.31.81,0,1.68.11,2.6.31,1.6.36,3.39,1.04,5.29,1.96.25.14.5.25.76.39.5.25,1.06.56,1.6.87,1.99,1.12,4.12,2.46,6.3,4,1.06.76,2.13,1.54,3.22,2.38.64.48,1.29.98,1.96,1.51.31.25.62.5.95.76,1.65,1.32,3.3,2.69,4.96,4.14.25.22.5.42.76.64,1.15,1.01,2.3,2.04,3.44,3.08,1.18,1.06,2.32,2.13,3.47,3.22.34.31.64.62.98.92,1.09,1.06,2.16,2.1,3.22,3.16,1.29,1.26,2.55,2.55,3.78,3.81.25.25.5.5.73.76,1.15,1.2,2.27,2.41,3.36,3.56.25.28.5.56.76.81,1.09,1.2,2.13,2.38,3.14,3.5.36.42.73.84,1.09,1.26.53.62,1.09,1.26,1.71,1.96.62.73,1.26,1.51,1.96,2.35,1.01,1.18,2.07,2.44,3.22,3.78.48.59.95,1.15,1.46,1.76.2.25.42.5.64.76,1.79,2.16,3.72,4.51,5.77,6.97.25.31.5.62.76.92.87,1.04,1.74,2.1,2.63,3.19,1.71,2.07,3.47,4.23,5.26,6.44.39.48.78.98,1.18,1.46.22.25.42.5.62.76.48.59.95,1.18,1.43,1.74,1.62,2.04,3.3,4.09,4.96,6.16.87,1.06,1.71,2.13,2.58,3.19.11.14.22.28.34.42.25.31.5.64.76.95,1.74,2.18,3.47,4.34,5.18,6.53.22.25.42.5.62.76.7.87,1.4,1.76,2.1,2.63,1.06,1.37,2.16,2.74,3.22,4.09.31.39.62.78.92,1.18.81,1.09,1.65,2.16,2.46,3.19,1.54,1.99,3.05,3.92,4.48,5.8.25.34.5.67.76,1.01.28.36.56.73.84,1.09l.59.76c2.13,2.83,4.12,5.49,5.88,7.9.2.28.39.56.59.81.62.84,1.18,1.62,1.71,2.38.53.76,1.04,1.46,1.51,2.16,1.6,2.3,2.88,4.26,3.78,5.74.14.28.28.53.42.76.62,1.15.95,1.93.92,2.35Z"/>
            <g>
              <g class="cls-16">
                <path class="cls-11" d="m256.38,170.09v75.73c-.53-1.46-1.06-2.91-1.57-4.31-.08-.25-.17-.5-.25-.76-.5-1.4-.95-2.77-1.37-4.12v-65.59c.36-.28.81-.5,1.26-.64.59-.2,1.23-.31,1.93-.31Z"/>
                <path class="cls-11" d="m265.03,172.75v93.65c-.25-.56-.5-1.12-.76-1.65v-92.39c.25.14.5.25.76.39Z"/>
                <path class="cls-11" d="m272.93,177.62c1.06.76,2.13,1.54,3.22,2.38v109.02c-.03-.06-.06-.08-.08-.14-1.06-2.04-2.1-4.09-3.14-6.13v-105.13Z"/>
                <path class="cls-11" d="m284.02,186.41c.25.22.5.42.76.64v118.04c-.25-.45-.5-.92-.76-1.37v-117.31Z"/>
                <path class="cls-11" d="m295.89,197.45v127.03c-.78-1.32-1.57-2.66-2.35-4-.14-.25-.31-.5-.45-.76-.14-.25-.28-.48-.42-.73v-124.71c1.09,1.06,2.16,2.1,3.22,3.16Z"/>
                <path class="cls-11" d="m304.52,206.38v132.27c-.25-.39-.5-.78-.76-1.2v-131.88c.25.28.5.56.76.81Z"/>
                <path class="cls-11" d="m315.64,219.23v136.33c-.81-1.06-1.6-2.16-2.35-3.28-.22-.34-.42-.64-.64-.98h-.22v-135.85c1.01,1.18,2.07,2.44,3.22,3.78Z"/>
                <path class="cls-11" d="m324.26,229.65v135.21c-.25-.2-.5-.45-.76-.67v-135.46c.25.31.5.62.76.92Z"/>
                <path class="cls-11" d="m335.38,243.23v130.2c-1.01-.62-2.07-1.34-3.22-2.16v-131.99c.39.48.78.98,1.18,1.46.22.25.42.5.62.76.48.59.95,1.18,1.43,1.74Z"/>
                <path class="cls-11" d="m344.01,253.96v115.21c-.25.59-.5,1.2-.76,1.82v-117.99c.25.31.5.64.76.95Z"/>
                <path class="cls-11" d="m355.13,267.96v77.29c-.48.92-.98,1.88-1.46,2.86-.53,1.04-1.06,2.1-1.6,3.19-.06.11-.11.25-.17.36v-87.8c1.06,1.37,2.16,2.74,3.22,4.09Z"/>
                <path class="cls-11" d="m363.75,279.14v50.52c-.25.42-.5.84-.76,1.26v-52.79c.25.34.5.67.76,1.01Z"/>
                <path class="cls-11" d="m374.87,294.23v17.81c-.95,1.46-2.04,3.08-3.22,4.9v-27.25c.62.84,1.18,1.62,1.71,2.38.53.76,1.04,1.46,1.51,2.16Z"/>
              </g>
              <g class="cls-16">
                <path class="cls-11" d="m266.63,173.61h-15.77c.53-.81,1.09-1.51,1.74-2.13.2-.17.36-.34.59-.45.36-.28.81-.5,1.26-.64h4.54c1.6.36,3.39,1.04,5.29,1.96.25.14.5.25.76.39.5.25,1.06.56,1.6.87Z"/>
                <path class="cls-11" d="m279.06,182.27h-31.39c.03-.25.08-.5.17-.76h30.27c.31.25.62.5.95.76Z"/>
                <path class="cls-11" d="m288.22,190.14c1.18,1.06,2.32,2.13,3.47,3.22h-45.09c0-1.09.06-2.18.11-3.22h41.5Z"/>
                <path class="cls-11" d="m300.4,202.01h-53.57c-.03-.25-.06-.5-.06-.76h52.9c.25.25.5.5.73.76Z"/>
                <path class="cls-11" d="m310.46,213.1h-62.48c-.17-1.06-.31-2.16-.42-3.22h60.1c.36.42.73.84,1.09,1.26.53.62,1.09,1.26,1.71,1.96Z"/>
                <path class="cls-11" d="m317.74,221.75h-68.33c-.06-.25-.11-.5-.14-.76h67.83c.2.25.42.5.64.76Z"/>
                <path class="cls-11" d="m326.9,232.84h-74.86c-.31-1.01-.59-2.07-.87-3.19h73.09c.87,1.04,1.74,2.1,2.63,3.19Z"/>
                <path class="cls-11" d="m333.95,241.5h-79.14c-.08-.25-.17-.5-.25-.76h78.78c.22.25.42.5.62.76Z"/>
                <path class="cls-11" d="m342.92,252.59h-83.87c-.45-1.06-.87-2.13-1.26-3.19h82.56c.87,1.06,1.71,2.13,2.58,3.19Z"/>
                <path class="cls-11" d="m349.8,261.24h-87.1c-.11-.25-.22-.5-.31-.76h86.79c.22.25.42.5.62.76Z"/>
                <path class="cls-11" d="m358.51,272.33h-90.71c-.5-1.06-1.01-2.13-1.48-3.19h89.73c.81,1.09,1.65,2.16,2.46,3.19Z"/>
                <path class="cls-11" d="m365.18,280.99h-93.12c-.14-.25-.25-.5-.39-.76h92.92l.59.76Z"/>
                <path class="cls-11" d="m373.36,292.08h-95.58c-.56-1.01-1.09-2.04-1.62-3.05-.03-.06-.06-.08-.08-.14h94.99c.2.28.39.56.59.81.62.84,1.18,1.62,1.71,2.38Z"/>
                <path class="cls-11" d="m379.07,300.73h-96.67c-.14-.25-.28-.5-.42-.76h96.67c.14.28.28.53.42.76Z"/>
                <path class="cls-11" d="m377.11,308.63c-.62.95-1.29,2.02-2.1,3.19h-86.45c-.62-1.06-1.2-2.13-1.82-3.19h90.37Z"/>
                <path class="cls-11" d="m369.86,319.72c-.17.25-.31.5-.48.76h-75.84c-.14-.25-.31-.5-.45-.76h76.76Z"/>
                <path class="cls-11" d="m364.51,328.37c-.25.42-.5.84-.76,1.29-.25.42-.5.84-.76,1.26-.11.2-.25.42-.36.64h-62.48c-.64-1.06-1.29-2.13-1.93-3.19h66.29Z"/>
                <path class="cls-11" d="m358.18,339.46c-.14.25-.25.5-.39.76h-52.29c-.17-.25-.31-.5-.48-.76h53.15Z"/>
                <path class="cls-11" d="m353.67,348.11c-.53,1.04-1.06,2.1-1.6,3.19h-39.66v-.34c-.62-.92-1.23-1.88-1.88-2.86h43.13Z"/>
                <path class="cls-11" d="m348.35,359.2c-.11.25-.22.5-.34.76h-28.68c-.22-.25-.45-.5-.67-.76h29.69Z"/>
                <path class="cls-11" d="m344.57,367.86c-.2.42-.39.87-.56,1.32-.25.59-.5,1.2-.76,1.82v.06h-11.4c-1.32-.95-2.74-2.02-4.17-3.19h16.89Z"/>
              </g>
            </g>
            <path class="cls-5" d="m373.91,288.8c-2.67.8-29.41,30.11-33.61,37.34-4.2,7.23-19.64,37.49-18.2,41.31,1.98,5.25,12.54,7.71,16.51,9.57,7,3.28,14.95,7.74,20.6,3.73,1.81-1.28,1.11-19.84,6.07-39.21,1.95-7.63,18.67-35.47,19.37-38.15.7-2.69-6.07-15.99-10.74-14.59Z"/>
          </g>
        </g>
        <g>
          <path class="cls-9" d="m675.04,271.36c-17,8.32-37.53,10.95-55.96,14.57-10.11,1.96-20.24,3.77-30.4,5.37-4.61.76-9.26,1.43-13.9,2.1-2.83.41-7.3,1.84-10.16.79-.64-.23-1.17-.79-1.17-1.52,0-.2,0-.38.03-.58.03-1.69,48.54-11.7,63.61-27.95,7.66-8.26,14.92-22.28,9.11-33.47-3.48-6.66-11.47-8.32-18.31-6.98-7.15,1.4-15.18,8.79-8.85,12.56.73-1.11,2.83-.44,2.28.96-1.63,3.34-9.55,6.45-13.08,1.58-5.67-7.77.87-19.91,7.03-24.29,16.24-11.54,47.76-13.33,57.4,8.58,7.01-4.41,15.6-1.58,18.2,6.28,6.69-5.2,15.22,2.04,16.12,10.11,1.58,14.25-10.11,26.14-21.93,31.89Z"/>
          <polygon class="cls-15" points="531.21 306.08 409.77 335.31 406.32 317.95 528.75 293.66 531.21 306.08"/>
          <path class="cls-12" d="m690.26,261.62s.59,35.97-12.13,38.49c-12.72,2.52-67.97,13.48-67.97,13.48,0,0-55.24,10.96-67.97,13.48-12.72,2.52-25.91-30.94-25.91-30.94l173.98-34.52Z"/>
        </g>
        <path class="cls-10" d="m461.49,295.72c3.03-1.17,15.15-1.62,18.73.43,8.58,4.9,25.73,5.08,28.71,7.35,2.98,2.28-16.1,9.1-23.98,7.88-7.88-1.23-25.82,3.6-38.03-2.49-12.21-6.09,14.57-13.16,14.57-13.16Z"/>
        <path class="cls-10" d="m492.12,327.86c-5.28-.41-20.63-1.77-22.9-3-2.27-1.23.16-3.68,2.54-4.55,2.38-.87,17.95-1.05,20.97,0,3.02,1.05,4.19,7.92-.62,7.55Z"/>
        <path class="cls-10" d="m501.32,324.23c-6.24-1.25-24.35-5.09-26.88-6.77s.7-3.95,3.67-4.53c2.96-.58,21.55,1.62,25.01,3.22,3.45,1.6,3.89,9.22-1.79,8.08Z"/>
      </g>
      <g>
        <path class="cls-2" d="m336.28,390.82c0,2.63,0,5.26-.06,7.87.03.25.03.5,0,.76-.03,2.66-.06,5.29-.14,7.9-.03,1.09-.06,2.16-.08,3.22-.11,2.66-.2,5.29-.34,7.87,0,.25-.03.5-.03.76-.08,1.6-.17,3.19-.25,4.73-.08,1.06-.14,2.13-.2,3.16-.08,1.06-.17,2.16-.22,3.22-.22,2.72-.42,5.35-.67,7.87-.03.25-.06.5-.06.76-.28,2.77-.56,5.4-.87,7.9-.14,1.12-.28,2.18-.42,3.22-.25,1.79-.5,3.47-.78,5.07-.14.98-.31,1.9-.48,2.8-.06.25-.08.5-.14.76-.62,3.19-1.29,5.85-1.99,7.9-.48,1.37-.95,2.44-1.43,3.22-.31.45-.62.81-.92,1.04H114.84c-.2-.2-.34-.53-.39-1.04-.08-.73-.06-1.82.11-3.22.08-.78.22-1.68.39-2.66.25-1.51.62-3.28,1.06-5.24.06-.25.11-.5.17-.76.53-2.35,1.18-5.01,1.93-7.87,0-.06.03-.14.06-.2.22-.98.5-1.99.78-3.02.64-2.49,1.37-5.12,2.13-7.9.06-.25.14-.5.22-.76.67-2.52,1.4-5.15,2.18-7.87.28-1.06.59-2.13.9-3.22.56-1.9,1.09-3.86,1.68-5.83.2-.7.39-1.37.59-2.07.06-.2.11-.39.17-.62,0-.03.03-.08.06-.14.73-2.58,1.46-5.18,2.24-7.87.31-1.06.62-2.16.9-3.22.76-2.6,1.51-5.24,2.24-7.9.08-.25.17-.5.22-.76.76-2.6,1.48-5.24,2.24-7.87v-.06c.31-1.06.59-2.1.9-3.16.73-2.63,1.46-5.26,2.18-7.9.03-.14.06-.28.11-.42.03-.11.06-.22.08-.34.73-2.63,1.43-5.29,2.13-7.9.28-1.06.56-2.13.84-3.19.7-2.66,1.4-5.29,2.04-7.9.08-.25.14-.5.2-.76.67-2.69,1.32-5.29,1.93-7.9.25-.92.45-1.82.67-2.74.03-.14.08-.31.11-.45.22-.92.42-1.88.64-2.77.39-1.74.78-3.44,1.15-5.13l.17-.76c.59-2.72,1.12-5.35,1.6-7.9.22-1.06.42-2.13.59-3.19.5-2.77.92-5.41,1.26-7.9.06-.25.08-.5.11-.76.2-1.48.36-2.94.5-4.31.11-1.18.22-2.38.36-3.58.11-1.04.22-2.1.34-3.19.31-2.58.62-5.21.98-7.9.03-.25.06-.5.11-.76.22-1.79.48-3.61.73-5.46.11-.81.22-1.62.36-2.44.14-1.04.31-2.13.48-3.19.39-2.6.81-5.24,1.26-7.9.06-.25.08-.5.14-.76.31-1.79.62-3.58.95-5.4.14-.81.28-1.65.45-2.49.2-1.06.39-2.13.62-3.19.48-2.63,1.01-5.26,1.57-7.9.03-.25.08-.5.14-.76.56-2.63,1.12-5.26,1.71-7.9.25-1.06.48-2.13.73-3.19.62-2.66,1.26-5.29,1.93-7.9.06-.25.11-.5.2-.76.17-.73.36-1.48.56-2.21.25-.95.5-1.93.76-2.88.25-.92.5-1.88.76-2.8.31-1.06.62-2.13.92-3.19.76-2.69,1.54-5.32,2.38-7.9.06-.25.14-.5.22-.76.87-2.72,1.76-5.35,2.69-7.9l.92-2.52c.08-.22.17-.45.25-.7.95-2.52,1.93-4.93,2.94-7.23.08-.22.17-.45.28-.64.11-.25.22-.5.34-.76,1.26-2.83,2.55-5.49,3.86-7.9.62-1.12,1.26-2.18,1.88-3.22.5-.84,1.01-1.62,1.54-2.38.25-.39.5-.78.76-1.15,1.18-1.62,2.35-3.08,3.56-4.34.25-.28.48-.53.73-.76l.25-.25c.84-.81,1.99-1.65,3.36-2.46.95-.62,2.04-1.2,3.19-1.79,2.27-1.15,4.84-2.3,7.59-3.39.11-.06.2-.08.31-.14.25-.08.5-.2.76-.31,2.55-.98,5.18-1.9,7.81-2.77.03,0,.06-.03.08-.03,1.06-.36,2.13-.7,3.19-1.04,2.77-.87,5.46-1.62,7.9-2.27.25-.06.5-.11.76-.2,3.28-.81,6.08-1.37,7.9-1.54.42-.06.81-.08,1.12-.08.67,0,1.37.03,2.07.08,2.46.14,5.12.64,7.9,1.43.25.06.5.14.76.22,2.55.76,5.21,1.74,7.9,2.88.39.2.78.36,1.18.53.67.31,1.34.62,2.02.95,1.48.73,2.97,1.48,4.43,2.27,1.18.64,2.32,1.32,3.47,1.99.25.14.5.31.76.45,2.72,1.65,5.35,3.39,7.9,5.24.11.06.2.14.31.22.34.22.7.5,1.04.76.64.45,1.26.92,1.88,1.4,2.74,2.13,5.29,4.31,7.56,6.47.11.08.22.2.31.28.25.25.5.5.76.73.76.76,1.48,1.48,2.16,2.21.28.31.56.62.84.92,1.34,1.48,2.77,3.86,4.31,6.97.11.25.25.5.36.76.08.17.17.36.22.53,1.04,2.16,2.07,4.62,3.16,7.34,0,.03.03.08.06.14.39.98.78,2.02,1.18,3.08.92,2.46,1.88,5.12,2.83,7.9.08.25.17.5.25.76.87,2.52,1.74,5.15,2.6,7.9.34,1.04.67,2.1,1.01,3.16v.03c.25.78.5,1.54.76,2.32.56,1.82,1.12,3.7,1.68,5.57.08.25.17.5.22.76.78,2.58,1.57,5.21,2.35,7.9.31,1.04.62,2.13.92,3.19.76,2.6,1.48,5.24,2.24,7.9.08.25.14.5.22.76.08.31.17.64.25.95.64,2.32,1.29,4.62,1.93,6.95.31,1.06.59,2.13.9,3.19.11.5.25.98.39,1.48.59,2.13,1.18,4.28,1.74,6.41.06.25.14.5.2.76.73,2.63,1.43,5.29,2.13,7.9.28,1.06.56,2.13.84,3.19.7,2.69,1.4,5.32,2.1,7.9.06.25.14.5.2.76.22.87.45,1.74.67,2.58.25.95.5,1.9.76,2.83.22.84.42,1.68.64,2.49.28,1.09.56,2.16.84,3.19.73,2.74,1.43,5.38,2.1,7.9.06.25.11.5.2.76.73,2.8,1.43,5.43,2.1,7.9.11.42.22.81.34,1.2.17.64.34,1.29.5,1.99.42,1.71.81,3.53,1.18,5.43.17.81.31,1.62.48,2.46.03.25.08.5.11.76.42,2.52.81,5.15,1.15,7.9.14,1.04.25,2.1.36,3.19.31,2.55.56,5.18.76,7.9.03.25.06.5.06.76.11,1.4.22,2.8.31,4.26.08,1.2.17,2.41.22,3.64.08,1.06.11,2.13.2,3.19.11,2.6.2,5.24.25,7.9.03.25.03.5.03.76.08,2.6.14,5.26.17,7.9,0,1.06.03,2.16.03,3.22Z"/>
        <g>
          <g class="cls-16">
            <path class="cls-11" d="m118.17,449.86v20.98h-3.22v-6.92c.25-1.51.62-3.28,1.06-5.24.06-.25.11-.5.17-.76.53-2.35,1.18-5.01,1.93-7.87,0-.06.03-.14.06-.2Z"/>
            <path class="cls-11" d="m126.83,418.57v52.26h-.76v-49.57c.2-.7.39-1.37.59-2.07.06-.2.11-.39.17-.62Z"/>
            <path class="cls-11" d="m137.92,379.28v91.55h-3.19v-80.07c.31-1.06.59-2.1.9-3.16.73-2.63,1.46-5.26,2.18-7.9.03-.14.06-.28.11-.42Z"/>
            <path class="cls-11" d="m146.57,345.34v125.49h-.76v-122.72h.11c.22-.92.42-1.88.64-2.77Z"/>
            <path class="cls-11" d="m157.66,274.82v196.01h-3.19v-178.76h.36c.14-1.04.31-2.13.48-3.19.39-2.6.81-5.24,1.26-7.9.06-.25.08-.5.14-.76.31-1.79.62-3.58.95-5.4Z"/>
            <path class="cls-11" d="m166.32,235.65v235.19h-.76v-232.3c.25-.95.5-1.93.76-2.88Z"/>
            <path class="cls-11" d="m177.41,202.66v268.18h-3.19V210.58c.08-.22.17-.45.25-.7.95-2.52,1.93-4.93,2.94-7.23Z"/>
            <path class="cls-11" d="m186.06,186.61v284.22h-.76V187.76c.25-.39.5-.78.76-1.15Z"/>
            <path class="cls-11" d="m197.15,177v293.83h-3.19V178.8c.95-.62,2.04-1.2,3.19-1.79Z"/>
            <path class="cls-11" d="m205.8,173.17v297.67h-.76V173.47c.25-.08.5-.2.76-.31Z"/>
            <path class="cls-11" d="m216.89,169.33v301.5h-3.19V170.37c1.06-.36,2.13-.7,3.19-1.04Z"/>
            <path class="cls-11" d="m225.55,166.86v303.97h-.76V167.06c.25-.06.5-.11.76-.2Z"/>
            <path class="cls-11" d="m236.64,165.32v305.51h-3.19V165.32c.42-.06.81-.08,1.12-.08.67,0,1.37.03,2.07.08Z"/>
            <path class="cls-11" d="m245.29,166.98v303.85h-.76V166.75c.25.06.5.14.76.22Z"/>
            <path class="cls-11" d="m256.38,171.35v299.49h-3.19V169.86c.39.2.78.36,1.18.53.67.31,1.34.62,2.02.95Z"/>
            <path class="cls-11" d="m265.03,176.05v294.78h-.76V175.6c.25.14.5.31.76.45Z"/>
            <path class="cls-11" d="m276.15,183.67v287.16h-3.22V181.29c.11.06.2.14.31.22.34.22.7.5,1.04.76.64.45,1.26.92,1.88,1.4Z"/>
            <path class="cls-11" d="m284.78,191.15v279.69h-.76V190.42c.25.25.5.5.76.73Z"/>
            <path class="cls-11" d="m295.89,209.88v260.95h-3.22V202.54c1.04,2.16,2.07,4.62,3.16,7.34h.06Z"/>
            <path class="cls-11" d="m304.52,235.17v235.66h-.76v-237.99c.25.78.5,1.54.76,2.32Z"/>
            <path class="cls-11" d="m315.64,273.82v197.02h-3.22v-208.64c.64,2.32,1.29,4.62,1.93,6.95.31,1.06.59,2.13.9,3.19.11.5.25.98.39,1.48Z"/>
            <path class="cls-11" d="m324.26,306.13v164.7h-.76v-167.53c.25.95.5,1.9.76,2.83Z"/>
            <path class="cls-11" d="m335.38,364.22v59.71c-.08,1.06-.14,2.13-.2,3.16-.08,1.06-.17,2.16-.22,3.22-.22,2.72-.42,5.35-.67,7.87-.03.25-.06.5-.06.76-.28,2.77-.56,5.4-.87,7.9-.14,1.12-.28,2.18-.42,3.22-.25,1.79-.5,3.47-.78,5.07v-118.13c.17.81.31,1.62.48,2.46.03.25.08.5.11.76.42,2.52.81,5.15,1.15,7.9.14,1.04.25,2.1.36,3.19.31,2.55.56,5.18.76,7.9.03.25.06.5.06.76.11,1.4.22,2.8.31,4.26Z"/>
          </g>
          <g class="cls-16">
            <path class="cls-11" d="m256.38,171.35c1.48.73,2.97,1.48,4.43,2.27h-56.07c.11-.06.2-.08.31-.14.25-.08.5-.2.76-.31,2.55-.98,5.18-1.9,7.81-2.77h40.75c.67.31,1.34.62,2.02.95Z"/>
            <path class="cls-11" d="m274.27,182.27h-84.66c.25-.28.48-.53.73-.76h82.9c.34.22.7.5,1.04.76Z"/>
            <path class="cls-11" d="m284.78,191.15c.76.76,1.48,1.48,2.16,2.21h-105.05c.62-1.12,1.26-2.18,1.88-3.22h99.95c.11.08.22.2.31.28.25.25.5.5.76.73Z"/>
            <path class="cls-11" d="m292.09,201.25c.11.25.25.5.36.76h-114.76c.11-.25.22-.5.34-.76h114.06Z"/>
            <path class="cls-11" d="m297.07,213.1h-123.78l.92-2.52c.08-.22.17-.45.25-.7h121.43v.14c.39.98.78,2.02,1.18,3.08Z"/>
            <path class="cls-11" d="m300.15,221.75h-129.78c.06-.25.14-.5.22-.76h129.3c.08.25.17.5.25.76Z"/>
            <path class="cls-11" d="m303.76,232.82v.03h-136.69c.31-1.06.62-2.13.92-3.19h134.76c.34,1.04.67,2.1,1.01,3.16Z"/>
            <path class="cls-11" d="m306.42,241.5h-141.62c.06-.25.11-.5.2-.76h141.2c.08.25.17.5.22.76Z"/>
            <path class="cls-11" d="m309.7,252.59h-147.56c.25-1.06.48-2.13.73-3.19h145.91c.31,1.04.62,2.13.92,3.19Z"/>
            <path class="cls-11" d="m312.17,261.24h-151.87c.03-.25.08-.5.14-.76h151.51c.08.25.14.5.22.76Z"/>
            <path class="cls-11" d="m315.25,272.33h-157.14c.2-1.06.39-2.13.62-3.19h155.62c.31,1.06.59,2.13.9,3.19Z"/>
            <path class="cls-11" d="m317.57,280.99h-161c.06-.25.08-.5.14-.76h160.66c.06.25.14.5.2.76Z"/>
            <path class="cls-11" d="m320.54,292.08h-165.71c.14-1.04.31-2.13.48-3.19h164.39c.28,1.06.56,2.13.84,3.19Z"/>
            <path class="cls-11" d="m322.84,300.73h-169.21c.03-.25.06-.5.11-.76h168.9c.06.25.14.5.2.76Z"/>
            <path class="cls-11" d="m325.75,311.82h-173.44c.11-1.04.22-2.1.34-3.19h172.26c.28,1.09.56,2.16.84,3.19Z"/>
            <path class="cls-11" d="m328.04,320.47h-176.71c.06-.25.08-.5.11-.76h176.4c.06.25.11.5.2.76Z"/>
            <path class="cls-11" d="m330.98,331.56h-181.5c.22-1.06.42-2.13.59-3.19h180.07c.11.42.22.81.34,1.2.17.64.34,1.29.5,1.99Z"/>
            <path class="cls-11" d="m332.75,340.22h-185.03l.17-.76h184.75c.03.25.08.5.11.76Z"/>
            <path class="cls-11" d="m334.26,351.31h-189.12c.25-.92.45-1.82.67-2.74v-.45h188.08c.14,1.04.25,2.1.36,3.19Z"/>
            <path class="cls-11" d="m335.07,359.96h-192.06c.08-.25.14-.5.2-.76h191.81c.03.25.06.5.06.76Z"/>
            <path class="cls-11" d="m335.8,371.05h-195.67c.28-1.06.56-2.13.84-3.19h194.64c.08,1.06.11,2.13.2,3.19Z"/>
            <path class="cls-11" d="m336.08,379.7h-198.28c.03-.14.06-.28.11-.42v-.34h198.14c.03.25.03.5.03.76Z"/>
            <path class="cls-11" d="m336.28,390.82h-201.55v-.06c.31-1.06.59-2.1.9-3.16h200.63c0,1.06.03,2.16.03,3.22Z"/>
            <path class="cls-11" d="m336.22,398.69c.03.25.03.5,0,.76h-203.96c.08-.25.17-.5.22-.76h203.74Z"/>
            <path class="cls-11" d="m336.08,407.34c-.03,1.09-.06,2.16-.08,3.22h-206.87c.31-1.06.62-2.16.9-3.22h206.06Z"/>
            <path class="cls-11" d="m335.66,418.43c0,.25-.03.5-.03.76H126.66c.06-.2.11-.39.17-.62v-.14h208.83Z"/>
            <path class="cls-11" d="m335.19,427.09c-.08,1.06-.17,2.16-.22,3.22H123.5c.28-1.06.59-2.13.9-3.22h210.79Z"/>
            <path class="cls-11" d="m334.29,438.18c-.03.25-.06.5-.06.76H121.09c.06-.25.14-.5.22-.76h212.98Z"/>
            <path class="cls-11" d="m333.37,446.83c-.14,1.12-.28,2.18-.42,3.22H118.12c0-.06.03-.14.06-.2.22-.98.5-1.99.78-3.02h214.41Z"/>
            <path class="cls-11" d="m331.68,457.92c-.06.25-.08.5-.14.76H116.02c.06-.25.11-.5.17-.76h215.5Z"/>
            <path class="cls-11" d="m329.56,466.57c-.48,1.37-.95,2.44-1.43,3.22H114.45c-.08-.73-.06-1.82.11-3.22h214.99Z"/>
          </g>
        </g>
        <path class="cls-5" d="m324.43,307.55c-3.05-11.22-6.15-22.42-9.33-33.61-.41-7.21-1.51-14.45-2.47-21.55-.05-.34-.58-.35-.55,0,.53,4.99.82,10.01,1.14,15.03-2.93-10.18-5.93-20.35-9.05-30.47-.14-.46-.83-.27-.72.2,5.33,22.96,11.23,45.77,17.3,68.55,6.13,22.99,12.89,45.89,15.36,69.64.08.79,1.28.83,1.27,0-.28-23.21-6.91-45.55-12.95-67.78Z"/>
        <path class="cls-5" d="m221.9,160.66c-7.39,2.35-19.39,11.2-20.27,14.83-.88,3.63.71,20.69,2.65,22.32,1.94,1.63,24.91,25.2,47.88,25.18,2.18,0,5.24-20.77,6.15-22.37.91-1.6,13.45,14.18,14.71,12.91,1.27-1.27,3.43-21.16,2.33-26.1-1.09-4.94-16.9-19.26-23.8-23.79s-23.01-5.09-29.65-2.98Z"/>
      </g>
      <g>
        <g>
          <path class="cls-10" d="m257.05,124.46l4.87,45.55v.07s.7,6.4.7,6.4c0,0,6.58,16.37-6.73,20.94-22.68,7.79-43.71-13.24-45.88-16.39-1.11-1.61-4.39-17.71-7.33-33.02-2.81-14.62-5.31-28.56-5.31-28.56l6.66.57,53.02,4.44Z"/>
          <path class="cls-14" d="m257.05,124.46l4.87,45.55v.07c-15.33.16-30.67-3.86-44.25-11.42-5.44-3.04-10.44-6.62-14.99-10.64-2.81-14.62-5.31-28.56-5.31-28.56l6.66.57,53.02,4.44Z"/>
        </g>
        <g>
          <path class="cls-3" d="m257.36,36.78l21.03,38.78s5.64-47.3-21.03-38.78Z"/>
          <path class="cls-10" d="m186.17,59.19c-5.64,21.84,10.77,71.45,29.12,86.17,12.56,10.08,36.25,9.93,52.27.1,7.29-4.47,12.99-10.94,15.35-19.35,7.55-26.93-13.02-85.12-27.12-92.47-24.88-12.98-62.72-1.17-69.62,25.54Z"/>
          <g>
            <path class="cls-3" d="m241.76,89.97c-5.38.92-3.15,11.62,1.83,10.77,4.91-.84,2.68-11.54-1.83-10.77Z"/>
            <path class="cls-3" d="m270.14,83.79c5.25-1.52,7.89,9.09,3.03,10.49-4.78,1.38-7.43-9.22-3.03-10.49Z"/>
            <path class="cls-14" d="m252.42,123.3c.96.61,1.97,1.51,3.19,1.36,1.17-.14,2.42-.95,3.39-1.58.1-.06.23.03.18.14-.6,1.45-2.24,2.63-3.83,2.68-1.56.05-2.57-1.09-3.22-2.39-.09-.18.15-.31.29-.22Z"/>
            <path class="cls-3" d="m236.51,85.95c1.38-.67,2.54-1.52,3.84-2.32,1.46-.91,2.72-1.48,3.46-3.12.4-.88-.12-2.2-.94-2.66-1.9-1.09-3.97-.42-5.78.6-1.96,1.11-3.19,2.46-4.01,4.56-.79,2.03,1.59,3.83,3.41,2.95Z"/>
            <path class="cls-3" d="m273.16,77.54c-1.53.07-2.96-.13-4.48-.22-1.72-.1-3.1,0-4.53-1.09-.77-.58-.94-1.99-.45-2.79,1.16-1.86,3.29-2.26,5.37-2.22,2.25.04,3.98.65,5.69,2.1,1.66,1.41.42,4.13-1.6,4.22Z"/>
            <path class="cls-7" d="m262.88,113.69s-1.56,7.33-7.08,6.99c-4.16-.26-3.57-8.68-3.57-8.68,0,0,5.87,2.99,10.66,1.69Z"/>
            <path class="cls-14" d="m251.98,112.36c2.45,2.49,5.51,3.49,8.58,3.45,1.37-.01,2.77-.25,4.1-.66.27-.06.53-.15.76-.25.24-.08.45-.15.7-.26.38-.14.52-.5.51-.88v-.02c-.03-.12-.06-.22-.11-.33v-.02s-.07-.29-.07-.29c-.46-2.57-1.52-6.4-1.52-6.4,1.03.27,6.23,1.42,5.88.1-2.96-10.9-6.25-23.02-11.5-33.25-.16-.35-.7-.15-.59.21,2.43,10.59,6.71,20.68,9.32,31.28-1.64-.26-4.33-.81-5.66-.51-.34.18,2.17,7.36,2.29,8.53,0,0,.01.05,0,.13-4.17,1.44-7.68.82-12.44-1.19-.29-.14-.5.14-.25.36Z"/>
          </g>
          <g>
            <path class="cls-3" d="m199.56,109.98c12.3-.88,5.66-24.89,5.66-24.89,0,0,18.87-1.84,14.36-30.66,0,0,24.11,5.13,38.85-2.79,14.74-7.91,11.19-35.58,6.75-36.73-4.44-1.15-14.13,8.36-14.13,8.36,0,0,1.27-10.79-4.44-8.5-5.71,2.29-9.32,8.02-9.32,8.02,0,0-46.54,4.42-54.69,15.07-6.2,8.1-3.51,18.74-3.51,18.74,0,0-11.29,6.44-9.6,16.36,1.69,9.92,15.71,38.05,30.08,37.02Z"/>
            <path class="cls-3" d="m218.69,49.27c-.11-.22-.46-.11-.37.13,6.09,15.83,4.05,35.15-16.1,36.54-.59.04-.5.88.07.91,7.64.32,14.9-3.79,18.64-10.63,4.86-8.87,1.89-18.49-2.24-26.95Z"/>
            <path class="cls-3" d="m265.46,16c-.08-.03-.17.08-.09.14,4.94,3.62,4.86,14.2,4.31,19.76-.69,6.91-4.25,13.13-10.07,16.69-10.18,6.23-24.45,4.03-35.49,1.58-.71-.16-.36.61.33.8,13.1,3.62,33.76,6.1,42.53-7.2,3.51-5.33,4.6-12.27,4.17-18.59-.29-4.37-1.22-11.22-5.69-13.17Z"/>
          </g>
          <g>
            <path class="cls-10" d="m203.8,111.43s-13.45-15.98-20.8-11.03c-7.35,4.94,3.83,28.85,13.21,31.41,9.38,2.56,11.93-6.07,11.93-6.07l-4.34-14.31Z"/>
            <path class="cls-14" d="m186.37,107.18c-.15,0-.16.21-.03.25,6.6,2.01,10.48,7.61,13.38,13.52-2.11-2.19-4.8-3.25-7.75-.71-.16.13.03.38.2.32,2.56-.79,4.48-.51,6.43,1.42,1.38,1.37,2.4,3.16,3.45,4.79.35.54,1.35.14,1.07-.49-.02-.05-.04-.1-.07-.14-.57-8.13-7.9-18.93-16.69-18.96Z"/>
          </g>
        </g>
      </g>
      <g>
        <g>
          <path class="cls-10" d="m364.11,426.5c-3,3.61-20.72-2.24-33.61-1.06-4.96.48-22.85,7.62-32.82,3.86-5.63-2.16-18.23-11.4-19.97-10.98-1.74.42-104.96-7.93-129.22-18.15-4.68-1.96-9.38-4.37-14-7-19.32-11.17-36.6-26.88-39.57-34.7-.76-1.99.31-7.81,2.6-15.93,8.77-31.14,35.23-96.37,43.52-111.15,10.45-18.65,39.99-45.7,46.66-44.92,18.62,2.13,9.89,79.95,8.54,89.11-1.23,8.26-18.99,50.77-20.33,60.32-.14,1.04-.11,1.68.17,1.85.45.28,3.28,1.65,7.73,3.81,24,11.57,95.5,45.31,101.1,47.86,6.69,2.97,26.74,8.77,39.49,11.2,8.99,1.71,42.74,22.24,39.71,25.88Z"/>
          <path class="cls-14" d="m175.91,335.9c-.14,1.04-.11,1.68.17,1.85.45.28,3.28,1.65,7.73,3.81-1.09.73-2.13,1.48-3.19,2.24-8.29,5.99-16.02,12.74-23.1,20.11-8.6,8.91-16.35,18.76-23.02,29.27-19.32-11.17-36.6-26.88-39.57-34.7-.76-1.99.31-7.81,2.6-15.93,8.77-31.14,35.23-96.37,43.52-111.15,10.45-18.65,39.99-45.7,46.66-44.92,18.62,2.13,9.89,79.95,8.54,89.11-1.23,8.26-18.99,50.77-20.33,60.32Z"/>
        </g>
        <g>
          <g>
            <path class="cls-2" d="m203.17,232.84c0,2.69-.03,5.32-.11,7.9,0,.25,0,.5-.03.76-.06,2.72-.2,5.38-.34,7.9-.06,1.09-.11,2.16-.2,3.19-.17,2.83-.39,5.49-.62,7.9-.03.25-.03.5-.06.76-.31,3.11-.62,5.8-.9,7.9-.17,1.29-.34,2.35-.48,3.19-.03.22-.08.42-.11.62-.31,1.6-.9,4.14-1.74,7.28-.06.25-.11.5-.17.76-.39,1.48-.84,3.11-1.29,4.82-.28,1.01-.56,2.02-.84,3.08-.31,1.04-.59,2.1-.9,3.19-.48,1.65-.95,3.36-1.46,5.1-.25.92-.53,1.85-.81,2.8-.06.25-.14.5-.22.76-.76,2.63-1.54,5.29-2.3,7.9-.34,1.09-.67,2.16-.98,3.19-.84,2.74-1.65,5.4-2.44,7.9-.08.25-.17.5-.25.76-.31.98-.59,1.93-.9,2.83-.25.84-.5,1.62-.76,2.38-.31.95-.62,1.85-.9,2.69-.39,1.18-.76,2.24-1.12,3.19-.92,2.66-1.65,4.4-2.02,4.84-.42.5-1.79,1.15-3.86,2.02-.73.34-1.57.67-2.46,1.04-.22.08-.48.2-.73.28-.36.17-.78.31-1.18.48-1.99.81-4.26,1.74-6.72,2.83-.25.08-.5.2-.76.31-2.49,1.09-5.15,2.32-7.9,3.7-.67.34-1.37.7-2.07,1.06-.36.2-.76.39-1.12.62-1.51.81-3.05,1.68-4.62,2.58-1.09.64-2.18,1.32-3.28,2.02-.25.17-.5.34-.76.5-2.55,1.65-5.07,3.44-7.48,5.38-.14.11-.28.22-.42.34-.17.14-.34.28-.53.42-.9.76-1.79,1.54-2.66,2.35-1.93,1.71-3.78,3.58-5.46,5.54-.87.95-1.68,1.96-2.44,2.97-.08.08-.14.14-.17.22-.22.25-.42.5-.59.76-1.65,2.24-3.14,4.62-4.37,7.14-.17.25-.31.5-.42.76-1.06,2.13-1.96,4.4-2.69,6.75-.03.08-.17.06-.42-.06-.56-.22-1.71-.95-3.22-2.07-1.57-1.15-3.58-2.74-5.74-4.62-.25-.25-.53-.5-.84-.76-.42-.36-.84-.76-1.29-1.18-.25-.22-.5-.45-.76-.73-1.96-1.82-3.95-3.86-5.82-5.99-.73-.81-1.43-1.62-2.07-2.46-.2-.25-.39-.48-.59-.73-.95-1.2-1.82-2.46-2.63-3.7-.9-1.4-1.68-2.8-2.32-4.2-.14-.25-.25-.5-.34-.76-1.18-2.72-1.74-5.35-1.48-7.81v-.08c.11-1.04.25-2.13.42-3.19.34-2.55.78-5.18,1.34-7.9,0-.25.06-.5.14-.76.5-2.58,1.09-5.21,1.79-7.9.11-.59.28-1.18.45-1.79.11-.48.22-.92.36-1.4.67-2.6,1.43-5.24,2.24-7.9.06-.25.14-.5.25-.76.08-.42.22-.81.36-1.23.67-2.21,1.4-4.42,2.16-6.67l1.09-3.19c.92-2.63,1.88-5.26,2.86-7.9.08-.25.2-.5.28-.76.5-1.32,1.01-2.63,1.51-3.95.25-.62.5-1.26.76-1.9.28-.67.53-1.37.81-2.04.42-1.06.87-2.13,1.32-3.19,1.06-2.66,2.18-5.29,3.3-7.9.11-.25.22-.5.34-.76.7-1.6,1.4-3.16,2.1-4.73.45-1.06.92-2.13,1.43-3.16.48-1.06.95-2.13,1.46-3.19.11-.25.22-.5.34-.76,1.15-2.44,2.27-4.82,3.42-7.14.11-.25.22-.5.36-.76,1.32-2.72,2.63-5.35,3.92-7.9.06-.11.14-.25.2-.36.25-.5.5-1.01.76-1.48.22-.45.48-.9.7-1.34,1.43-2.77,2.83-5.4,4.17-7.9.17-.25.28-.5.42-.76.9-1.62,1.76-3.16,2.6-4.65.64-1.12,1.26-2.21,1.88-3.25.45-.78.9-1.51,1.32-2.24.2-.34.39-.64.59-.95,1.99-3.28,3.72-5.97,5.15-7.9.2-.28.36-.53.53-.76.39-.5.76-.95,1.06-1.32.17-.22.36-.42.56-.64.25-.28.5-.59.76-.87,1.43-1.65,3-3.33,4.65-5.07,1.01-1.06,2.07-2.16,3.14-3.22.03-.03.08-.08.11-.11,1.04-1.06,2.1-2.1,3.19-3.16,1.6-1.54,3.25-3.08,4.9-4.59.28-.25.56-.48.84-.76.7-.64,1.43-1.29,2.16-1.93.25-.2.5-.42.76-.67,2.16-1.85,4.31-3.64,6.39-5.29.5-.42,1.01-.81,1.51-1.18.92-.73,1.82-1.4,2.69-2.04.17-.11.34-.25.5-.36,2.91-2.1,5.6-3.84,7.9-5.01.25-.14.5-.28.76-.39,3.05-1.46,5.32-1.88,6.39-.81.53.53,1.04,1.09,1.51,1.71,1.09,1.4,2.04,3.02,2.91,4.87.08.2.17.39.28.59.36.84.7,1.71,1.04,2.63.87,2.41,1.62,5.07,2.24,7.9.06.25.11.5.14.76.53,2.52.95,5.15,1.29,7.87.17,1.06.28,2.13.39,3.22.25,2.58.48,5.24.62,7.9,0,.25.03.5.03.76.14,2.63.22,5.26.25,7.9.03,1.06.03,2.13.03,3.19Z"/>
            <g>
              <g class="cls-16">
                <path class="cls-11" d="m98.43,318.48v50.1c-.2-.25-.39-.48-.59-.73-.95-1.2-1.82-2.46-2.63-3.7v-35.79h.36c.67-2.6,1.43-5.24,2.24-7.9.06-.25.14-.5.25-.76.08-.42.22-.81.36-1.23Z"/>
                <path class="cls-11" d="m107.08,294.12v83.65c-.25-.22-.5-.45-.76-.73v-81.02c.25-.62.5-1.26.76-1.9Z"/>
                <path class="cls-11" d="m118.17,268.38v118.01c-.56-.22-1.71-.95-3.22-2.07v-108.83c.45-1.06.92-2.13,1.43-3.16.48-1.06.95-2.13,1.46-3.19.11-.25.22-.5.34-.76Z"/>
                <path class="cls-11" d="m126.83,250.74v120.31h-.17c-.22.25-.42.5-.59.76v-119.58c.25-.5.5-1.01.76-1.48Z"/>
                <path class="cls-11" d="m137.92,230.6v128.94c-.17.14-.34.28-.53.42-.9.76-1.79,1.54-2.66,2.35v-126.22c.64-1.12,1.26-2.21,1.88-3.25.45-.78.9-1.51,1.32-2.24Z"/>
                <path class="cls-11" d="m146.57,218.17v135.15c-.25.17-.5.34-.76.5v-134.79c.25-.28.5-.59.76-.87Z"/>
                <path class="cls-11" d="m157.66,206.6v140.45c-.67.34-1.37.7-2.07,1.06-.36.2-.76.39-1.12.62v-138.96c1.04-1.06,2.1-2.1,3.19-3.16Z"/>
                <path class="cls-11" d="m166.32,198.65v144.39c-.25.08-.5.2-.76.31v-144.03c.25-.2.5-.42.76-.67Z"/>
                <path class="cls-11" d="m177.41,189.77v148.65c-.73.34-1.57.67-2.46,1.04-.22.08-.48.2-.73.28v-147.56c.92-.73,1.82-1.4,2.69-2.04.17-.11.34-.25.5-.36Z"/>
                <path class="cls-11" d="m186.06,184.37v138.93c-.25.84-.5,1.62-.76,2.38v-140.92c.25-.14.5-.28.76-.39Z"/>
                <path class="cls-11" d="m197.15,190.14v95.67c-.28,1.01-.56,2.02-.84,3.08-.31,1.04-.59,2.1-.9,3.19-.48,1.65-.95,3.36-1.46,5.1v-111.91c1.09,1.4,2.04,3.02,2.91,4.87h.28Z"/>
              </g>
              <g class="cls-16">
                <path class="cls-11" d="m198.18,193.36h-25.48c.5-.42,1.01-.81,1.51-1.18.92-.73,1.82-1.4,2.69-2.04h20.25v.59c.36.84.7,1.71,1.04,2.63Z"/>
                <path class="cls-11" d="m200.57,202.01h-38c.28-.25.56-.48.84-.76h37.02c.06.25.11.5.14.76Z"/>
                <path class="cls-11" d="m202.25,213.1h-51.02c1.01-1.06,2.07-2.16,3.14-3.22h47.5c.17,1.06.28,2.13.39,3.22Z"/>
                <path class="cls-11" d="m202.89,221.75h-59.23c.2-.28.36-.53.53-.76h58.67c0,.25.03.5.03.76Z"/>
                <path class="cls-11" d="m203.17,232.84h-66.57c.45-.78.9-1.51,1.32-2.24.2-.34.39-.64.59-.95h64.64c.03,1.06.03,2.13.03,3.19Z"/>
                <path class="cls-11" d="m203.06,240.74c0,.25,0,.5-.03.76h-71.33c.17-.25.28-.5.42-.76h70.94Z"/>
                <path class="cls-11" d="m202.69,249.4c-.06,1.09-.11,2.16-.2,3.19h-76.62c.06-.11.14-.25.2-.36.25-.5.5-1.01.76-1.48v-1.34h75.87Z"/>
                <path class="cls-11" d="m201.88,260.49c-.03.25-.03.5-.06.76h-80.23c.11-.25.22-.5.36-.76h79.93Z"/>
                <path class="cls-11" d="m200.93,269.14c-.17,1.29-.34,2.35-.48,3.19h-84.07c.48-1.06.95-2.13,1.46-3.19h83.09Z"/>
                <path class="cls-11" d="m198.61,280.23c-.06.25-.11.5-.17.76h-85.92c.11-.25.22-.5.34-.76h85.75Z"/>
                <path class="cls-11" d="m196.31,288.88c-.31,1.04-.59,2.1-.9,3.19h-87.52c.42-1.06.87-2.13,1.32-3.19h87.1Z"/>
                <path class="cls-11" d="m193.14,299.97c-.06.25-.14.5-.22.76h-88.38c.08-.25.2-.5.28-.76h88.33Z"/>
                <path class="cls-11" d="m190.62,308.63c-.34,1.09-.67,2.16-.98,3.19h-89.06l1.09-3.19h88.94Z"/>
                <path class="cls-11" d="m187.21,319.72c-.08.25-.17.5-.25.76h-89.14c.06-.25.14-.5.25-.76h89.14Z"/>
                <path class="cls-11" d="m184.41,328.37c-.39,1.18-.76,2.24-1.12,3.19h-88.52c.11-.59.28-1.18.45-1.79v-1.4h89.2Z"/>
                <path class="cls-11" d="m174.94,339.46c-.22.08-.48.2-.73.28-.36.17-.78.31-1.18.48h-80.21c0-.25.06-.5.14-.76h81.97Z"/>
                <path class="cls-11" d="m155.59,348.11c-.36.2-.76.39-1.12.62-1.51.81-3.05,1.68-4.62,2.58h-58.78c.11-1.04.25-2.13.42-3.19h64.1Z"/>
                <path class="cls-11" d="m138.34,359.2c-.14.11-.28.22-.42.34-.17.14-.34.28-.53.42h-44.5c-.14-.25-.25-.5-.34-.76h45.79Z"/>
                <path class="cls-11" d="m129.26,367.86c-.87.95-1.68,1.96-2.44,2.97v.22h-26.32c-.73-.81-1.43-1.62-2.07-2.46-.2-.25-.39-.48-.59-.73h31.42Z"/>
                <path class="cls-11" d="m121.7,378.95c-.17.25-.31.5-.42.76h-12.07c-.25-.25-.53-.5-.84-.76h13.33Z"/>
              </g>
            </g>
          </g>
          <path class="cls-5" d="m198.18,288.63c-1.98,2.99-4.19,6.22-6.2,9.58,2.66-9.12,5.51-18.17,8.85-27.04.19-.52-.63-.73-.82-.23-8.22,21.3-16.61,42.46-21.26,64.92-.33,1.62,2.02,2.3,2.49.69,2.86-9.85,5.51-19.8,8.28-29.71,1.07-2.32,2.03-4.7,3.18-6.94,1.9-3.71,4.03-7.29,6.28-10.8.32-.5-.47-.95-.79-.46Z"/>
          <path class="cls-5" d="m187.39,185.37c-.33-.2-.61.26-.31.49,13.41,10.18,15.02,33.6,15.4,40.57.72,13.49-.31,25.04-2.46,38.24-.11.67.94.97,1.12.29,4.67-17.57,6.77-66.77-13.74-79.59Z"/>
          <path class="cls-5" d="m86.4,355.54c-.37,4.93,24.26,38.51,34.07,35.24,4.2-1.4,15.67-24.97,26.62-33.61,10.95-8.64,34.29-18.81,36.62-19.71,2.33-.9,7.91-22.28,6.07-23.63-1.84-1.35-41.31,2.31-57.18,9.64-15.87,7.33-45.74,25.77-46.21,32.07Z"/>
        </g>
      </g>
    </g>
    <g>
      <g>
        <path class="cls-1" d="m334.95,404.46c28.66,8.47,25.3,35.34,23.03,43.03-2.27,7.69-14.06,32.07-42.72,23.6-28.67-8.47-22.37-37.26-20.86-42.39,1.7-5.77,11.88-32.71,40.55-24.24Z"/>
        <g>
          <path class="cls-13" d="m298.32,431.19s10.77,1.06,4.54,19.99c0,0-13.71-12.61-4.54-19.99Z"/>
          <path class="cls-13" d="m302.81,432.96s.67,8.86-15.52,6.52c0,0,8.24-12.88,15.52-6.52Z"/>
          <path class="cls-13" d="m299.94,432.28s8.3-3.18-.74-16.81c0,0-8.13,12.96.74,16.81Z"/>
          <path class="cls-13" d="m297.83,431.71s6.9-8.34,19.12,7.4c0,0-18.12,4.33-19.12-7.4Z"/>
          <path class="cls-13" d="m299.37,430.82s-3.48-11.87,16.9-10.53c0,0-6.15,18.3-16.9,10.53Z"/>
          <path class="cls-13" d="m301.89,432.8s-10.69,1.62-18.27-7.22c0,0,.06-4.98,5.29-6.33,0,0,5.79,10.09,15.04,10.7l-1.4,2.39"/>
        </g>
      </g>
      <g>
        <path class="cls-1" d="m406.38,448.24c-8.77,28.57-35.61,24.92-43.27,22.57-7.66-2.35-31.92-14.4-23.14-42.97,8.78-28.58,37.5-21.98,42.61-20.41,5.75,1.77,32.58,12.23,23.81,40.8Z"/>
        <g>
          <path class="cls-13" d="m380.05,411.33s-1.18,10.76-20.04,4.33c0,0,12.75-13.58,20.04-4.33Z"/>
          <path class="cls-13" d="m378.23,415.8s-8.87.58-6.35-15.59c0,0,12.79,8.38,6.35,15.59Z"/>
          <path class="cls-13" d="m378.94,412.94s3.09,8.33,16.82-.56c0,0-12.87-8.26-16.82.56Z"/>
          <path class="cls-13" d="m379.53,410.83s8.27,6.99-7.6,19.04c0,0-4.14-18.16,7.6-19.04Z"/>
          <path class="cls-13" d="m380.4,412.38s11.91-3.35,10.35,17.01c0,0-18.23-6.34-10.35-17.01Z"/>
          <path class="cls-13" d="m378.4,414.88s-1.51-10.71,7.41-18.19c0,0,4.98.11,6.28,5.36,0,0-10.15,5.68-10.86,14.93l-2.37-1.43"/>
        </g>
      </g>
      <g>
        <polyline class="cls-17" points="448.09 473.63 457.42 457.18 607.72 457.18 617.05 473.63"/>
        <polyline class="cls-17" points="474.86 473.63 481.23 457.18 583.91 457.18 590.28 473.63"/>
      </g>
      <rect class="cls-9" x="103.34" y="470.83" width="540.5" height="17.5"/>
      <g>
        <rect class="cls-4" x="257.25" y="415" width="37.81" height="55.84"/>
        <rect class="cls-1" x="253" y="407.86" width="46.31" height="11.1"/>
      </g>
      <path class="cls-8" d="m253.95,390.48s-10.12,80.35-23.36,80.35h-70.08c-13.24,0-23.36-80.35-23.36-80.35h116.79Z"/>
    </g>
  </g>
</svg>