<?xml version="1.0" encoding="UTF-8"?>
<svg id="Layer_4" data-name="Layer 4" xmlns="http://www.w3.org/2000/svg" viewBox="0 0 750 500">
  <defs>
    <style>
      .cls-1 {
        fill: #f29f6e;
      }

      .cls-1, .cls-2, .cls-3, .cls-4, .cls-5, .cls-6, .cls-7, .cls-8, .cls-9, .cls-10, .cls-11, .cls-12, .cls-13 {
        stroke-width: 0px;
      }

      .cls-2 {
        fill: #ef5971;
      }

      .cls-3 {
        fill: #471c0e;
      }

      .cls-4 {
        fill: #a7baa1;
      }

      .cls-5 {
        fill: #b9b9b9;
      }

      .cls-6 {
        fill: #ffbdc5;
        fill-rule: evenodd;
      }

      .cls-7 {
        fill: #aa6674;
      }

      .cls-8 {
        fill: #fff;
      }

      .cls-9 {
        fill: #f3e3d5;
      }

      .cls-10 {
        fill: #f5f9fc;
      }

      .cls-11 {
        fill: #dec9bc;
      }

      .cls-12 {
        fill: #ca3627;
      }

      .cls-13 {
        fill: #dc9067;
      }
    </style>
  </defs>
  <path class="cls-6" d="m405.08,82.24c84.54-.92,182.66-57.61,243.89-5.45,61.2,52.12,22.89,143.62,4.3,216.83-14.15,55.72-46.96,103.63-95.24,141.18-45.86,35.68-101.73,57.23-162.76,59.51-66.16,2.48-133.07-8.76-184.14-46.53-57.37-42.43-99.15-101.18-104.83-167.19-6.23-72.4,8.11-155.38,73.34-198.69,62.43-41.44,147.32,1.18,225.43.33Z"/>
  <g>
    <g>
      <path class="cls-5" d="m193.94,382.01h32.97c1.95,0,3.42,1.77,3.07,3.69l-9.76,53.2c-.27,1.48-1.56,2.56-3.07,2.56h-.53c-1.77,0-3.18-1.46-3.12-3.23l1.29-39.18c.06-1.76-1.36-3.23-3.12-3.23h-17.72v-13.82Z"/>
      <path class="cls-5" d="m195.81,478h-72.95s-11.27-73.44-12-75.62c-.73-2.18-12.72-9.09-13.45-10.91-.73-1.82-.18-9.45,0-9.45h109.07l-10.67,95.98Z"/>
    </g>
    <g>
      <g>
        <path class="cls-13" d="m432.66,257.06c-2.62,25.19-12.59,64.25-24.49,96.8-9.34,25.6-19.9,47.12-29.03,54.74-20.74,17.25-118.9,42.58-119.98,43.28-1.05.73-9.48,4.25-14.78,6.69-5.26,2.47-35.89-1.05-39.76-1.05s-30.28,14.78-34.85,12.3c-4.57-2.44,19.37-27.08,29.2-30.95,9.86-3.87,41.77-18.53,48.81-21.35,7.04-2.82,83.33-59.6,86.5-63.47,1.08-1.28,4.1-9.8,8.03-21.61,7.8-23.41,19.17-59.86,25.94-79.03,10.21-28.85,29.55-73.85,48.92-73.62,5.53.09,20.16,32.2,15.47,77.25Z"/>
        <path class="cls-7" d="m432.66,257.06c-2.62,25.19-12.59,64.25-24.49,96.8-23.68,1.08-46.77-7.42-65.85-21.41,7.8-23.41,19.17-59.86,25.94-79.03,10.21-28.85,29.55-73.85,48.92-73.62,5.53.09,20.16,32.2,15.47,77.25Z"/>
        <path class="cls-9" d="m343.19,319.11c1.49,4.15,50.24,15.83,79.26,0,4-2.18,12.31-55.28,13.45-78.17.97-19.46-5.44-56.82-18.62-63.66-10.83-5.62-33.73,32.75-44.28,56.02-10.54,23.27-31.65,80.7-29.81,85.8Z"/>
      </g>
      <g>
        <g>
          <path class="cls-9" d="m412.42,177.24c-20.77,20.05-35.78,94.24-40.14,139.33-4.36,45.08.01,156.34,5.09,161.43h220.57c8.73-6.54-26.42-106.54-37.33-146.71-10.91-40.17-34.9-126.7-47.27-140.52-12.36-13.82-38.54-30.34-55.26-30.18-6.79.07-38.09,9.34-45.66,16.65Z"/>
          <path class="cls-11" d="m470.28,175.11c-6.16,13.5-12.84,27.6-25.08,36.15-14.74,10.3-32.14,2.9-37.2-14.71-.06-.2-.34-.12-.29.08,3.48,15.5,16.2,25.9,31.41,19.95,15.2-5.94,27.43-25.4,31.8-41.19.11-.39-.46-.66-.63-.28Z"/>
        </g>
        <path class="cls-2" d="m403.06,179.81c-4.52,3.68-25.64,74.47-32.21,127.31-6.57,52.84,2.64,170.88,2.64,170.88h232.69s-34.09-135.08-37.48-141.87c-3.39-6.79-70.14.58-90.06-47.44-8.73-21.05,4.93-121.24,2.37-122.94-2.56-1.7-13.82-6.16-16.38-4.96s-13.05,76.51-13.21,78.69c-.17,2.18-51.99,5.82-53.93,5.33-1.94-.48,17.12-69.56,14.93-70.04-2.18-.48-5.72,2.06-9.35,5.03Z"/>
      </g>
      <g>
        <g>
          <path class="cls-13" d="m390.26,138.61l19.16,43.55.03.07,2.69,6.12s2.54,18.15,16.89,15.39c24.46-4.71,32.53-34.53,32.85-38.48.17-2.03-5.2-18.22-10.46-33.53-5.03-14.62-9.98-28.47-9.98-28.47l-5.71,3.95-45.46,31.41Z"/>
          <path class="cls-7" d="m390.26,138.61l19.16,43.55.03.07c13.9-7.79,25.64-19.34,33.96-33.17,3.32-5.55,5.98-11.36,8-17.34-5.03-14.62-9.98-28.47-9.98-28.47l-5.71,3.95-45.46,31.41Z"/>
        </g>
        <g>
          <path class="cls-13" d="m422.78,40.56c16.22,16.91,26.59,70.18,17.47,92.84-6.25,15.52-27.77,27.43-47.28,26.68-8.87-.34-17.33-3.3-23.74-9.72-20.54-20.55-31.5-83.7-22.48-97.53,15.93-24.41,56.2-32.96,76.04-12.28Z"/>
          <g>
            <path class="cls-3" d="m388.1,96.7c5.34-1.91,8.77,8.92,3.82,10.68-4.87,1.74-8.29-9.08-3.82-10.68Z"/>
            <path class="cls-3" d="m359.26,105.55c-5.52,1.3-2.52,12.25,2.59,11.05,5.04-1.18,2.04-12.13-2.59-11.05Z"/>
            <path class="cls-7" d="m395.4,132.31c-.55,1.04-1.01,2.37-2.2,2.86-1.14.47-2.67.37-3.87.3-.12,0-.19.14-.09.22,1.28,1.01,3.36,1.24,4.83.47,1.43-.75,1.77-2.29,1.7-3.8,0-.21-.29-.2-.37-.05Z"/>
            <path class="cls-3" d="m390.81,90.4c-1.59.1-3.08-.08-4.66-.15-1.79-.08-3.22.04-4.72-1.06-.81-.59-1.01-2.05-.51-2.89,1.17-1.95,3.38-2.4,5.54-2.39,2.34,0,4.14.61,5.95,2.09,1.75,1.43.51,4.28-1.59,4.4Z"/>
            <path class="cls-3" d="m353.35,101.42c1.42-.72,2.62-1.62,3.95-2.48,1.51-.97,2.8-1.58,3.55-3.29.4-.92-.16-2.28-1.02-2.75-1.99-1.1-4.13-.37-5.99.72-2.02,1.18-3.27,2.61-4.09,4.8-.79,2.12,1.72,3.95,3.59,3Z"/>
            <path class="cls-8" d="m381.04,128.93s5.15,5.84,9.97,2.73c3.64-2.35-1.18-9.68-1.18-9.68,0,0-3.79,5.7-8.79,6.95Z"/>
            <path class="cls-7" d="m390.23,122.18c-.96,3.5-3.21,5.97-6.01,7.49-1.25.69-2.63,1.18-4.05,1.49-.27.08-.55.14-.81.16-.25.05-.48.09-.77.12-.41.07-.73-.19-.91-.54v-.02c-.04-.12-.07-.22-.08-.35v-.02s-.09-.3-.09-.3c-.89-2.56-1.88-6.56-1.88-6.56-.79.77-4.92,4.45-5.27,3.08-2.86-11.38-6.05-24.03-6.5-35.95-.03-.39.56-.49.64-.11,3.19,10.83,4.45,22.14,7.47,33.06,1.35-1.07,3.51-2.94,4.87-3.34.4-.01,1.78,7.77,2.27,8.89,0,0,.01.05.06.12,4.51-.82,7.37-3.16,10.66-7.41.19-.27.53-.13.41.2Z"/>
          </g>
          <path class="cls-3" d="m344.13,81.22c-.25-2.79-.38-12.11.98-14.64,1.36-2.53,6.98,2.55,13.54,1.91,6.56-.64,13.95-11.71,23.94-16.68,5.73-2.85,20.17-.63,24.8,4.38,12.11,13.06,9.6,22.74,18.45,32.96,6.82,7.88,11.59,8.55,15.58,8.11,9.17-1.02-4.84-62.36-25.98-69.29-21.13-6.93-62.36,2.53-70.59,24.25-5.26,13.88-.74,28.99-.74,28.99Z"/>
          <g>
            <path class="cls-13" d="m433.39,96.84s4.05-21.31,13.23-20.57c9.17.74,11.21,28.07,4.02,35.16-7.19,7.1-13.89.57-13.89.57l-3.35-15.16Z"/>
            <path class="cls-7" d="m447,84.12c.13-.08.25.11.15.21-4.95,5.17-5.62,12.22-5.24,19.05.79-3.05,2.69-5.38,6.66-4.59.21.04.17.36-.02.4-2.72.58-4.32,1.82-5.1,4.56-.55,1.94-.57,4.08-.69,6.09-.04.67-1.15.82-1.22.1,0-.05,0-.11-.01-.16-3.62-7.65-2.47-21.15,5.47-25.66Z"/>
          </g>
        </g>
      </g>
      <g>
        <g>
          <path class="cls-11" d="m368.62,402.33c-3.57.49-172.21,58.42-172.4,62.64-.11,2.55,113.32-.14,122.51-5.29,3.08-1.73.67-21.3.67-21.3,0,0,56.91-8.44,60.57-11.52,3.65-3.08,1.72-26.33-11.35-24.53Z"/>
          <path class="cls-12" d="m314.04,419.92c-1.23,1.97,3.92,18.31,5.64,19.37s59.92-6.35,62.66-10.6c2.74-4.25-1.44-29.89-11.38-28.88-9.94,1-55.54,17.9-56.92,20.11Z"/>
          <path class="cls-11" d="m330.57,424.29c-4.42-.2-4.73,6.66-.31,6.86,4.42.2,4.73-6.66.31-6.86Z"/>
          <path class="cls-11" d="m364.77,414.64c-4.42-.2-4.73,6.66-.31,6.86,4.42.2,4.73-6.66.31-6.86Z"/>
        </g>
        <g>
          <path class="cls-13" d="m347.19,402.01c-4.98.5-38.3,17.28-41.39,23.83-3.09,6.54,12.96,3.45,28.99-3.65,16.03-7.1,24.94-21.45,12.4-20.18Z"/>
          <path class="cls-7" d="m369.06,397.1c-5.86,2.21-12.33.9-18.32,2.42-5.72,1.45-39.79,16.8-45.08,26.01-.16.28-.1.55.13.31,8.03-8.27,40.64-23.31,47.48-24.94,4.14-.98,10.15-1.56,15.93-3.27.58-.17.44-.75-.14-.53Z"/>
          <g>
            <path class="cls-13" d="m592.6,345.89c-3.4,10.18-29.09,33.94-53.81,45.58-24.72,11.63-131.5,24.72-133.3,24.37-1.83-.38-14.37,13.15-20.13,15.62-10.18,4.33-27.4,5.79-32.26,4.01-13.47-4.97-20.83-16.38-24.08-20.01-3.29-3.64,17.8-15.04,27.25-16,20.71-2.12,33.68-9.95,40.49-13.32,6.78-3.4,107.82-56.34,110.73-58.26.29-.2.29-.87.09-1.95-1.8-9.83-22.05-53.2-23.68-61.72-1.8-9.45-14.19-89.82,5.03-92.84,6.89-1.11,38.71,25.71,50.35,44.62,9.25,14.98,39.5,81.56,49.91,113.49,2.73,8.32,4.1,14.31,3.4,16.4Z"/>
            <path class="cls-7" d="m589.2,329.48c-11.46,2.91-23.33,4.22-35.14,4.42-15.53.29-32.37-.84-46.48-7.97-1.8-9.83-22.05-53.2-23.68-61.72-1.8-9.45-14.19-89.82,5.03-92.84,6.89-1.11,38.71,25.71,50.35,44.62,9.25,14.98,39.5,81.56,49.91,113.49Z"/>
            <path class="cls-7" d="m581.62,346.74c-1.77-2.1-5.17-2.76-7.27-.75-1.87,1.8-1.66,5.17,1.11,6.39,2.06.91,4.63-1.36,3.07-3.49-.24-.33-.71.09-.55.48.59,1.41-1.3,2.02-2.18,1.26-.7-.61-.91-1.65-.58-2.45.52-1.27,1.92-1.66,3.16-1.34,1.26.33,2.31,1.36,2.66,2.63.39,1.42-.29,2.77-1,3.96-.16.27.19.65.43.49,2.15-1.46,2.94-5.04,1.14-7.17Z"/>
          </g>
        </g>
        <g>
          <path class="cls-9" d="m483.91,168.55c-15.95,17.1-6.93,82.21-4.38,93.12,2.54,10.91,18.52,49.55,20.97,52.23,3.1,3.4,66.78,10.99,88.7-6.06,3.27-2.54-39.14-86.93-54.77-103.82-15.63-16.89-45.81-40.52-50.52-35.47Z"/>
          <path class="cls-11" d="m505.75,315.6c-.56-.38-4.57-1.94-5.03-2.31-5.86-15.04-12.36-30.28-19.61-44.7-.06-.11-.25-.03-.21.09,1.98,5.7,4.11,11.36,6.31,16.98-1.51-1.7-3.18-3.26-4.87-4.65-.39-.32-.91.18-.56.56,3.15,3.48,5.48,7.43,8.23,11.18,2.82,6.92,8.93,21.06,9.03,21.3.32.79,5.27,2.64,6.71,2.02.2-.09.15-.37,0-.47Z"/>
        </g>
        <g>
          <path class="cls-9" d="m253.83,473.19h-74.14s.52-12.25,12.74-21.79c12.77-9.98,17.48-7.07,20.33-10.33,2.85-3.29,5.03-12.45,5.03-12.45l4.13,2.18,5.9-3.08s-3.26,4.6-3.93,7.01c-.64,2.41-1.75,5.9,1.31,8.29,3.05,2.41,23.39,3.52,28.62,30.16Z"/>
          <g>
            <path class="cls-11" d="m249.85,473.19h-.41c-4.57-13.76-14.78-23.47-29.81-24.72-16.35-1.34-30.48,9.66-35.63,24.72h-.35c4.01-16.03,18.7-27.22,35.4-26,14.83,1.08,28.1,11.11,30.8,26Z"/>
            <path class="cls-11" d="m246.59,473.19h-.9c-4.01-8.84-10.35-15.56-20.24-18.27-13.23-3.64-27.34.29-35.22,12.42-.09.15-.32.03-.23-.15,7.18-11.84,20.45-16.06,33.3-13.5,11.43,2.3,18.76,9.48,23.3,19.49Z"/>
            <path class="cls-11" d="m244.12,473.19h-.55c-5.53-9.37-13-15.47-25.25-15.36-12.19.15-22.11,5.03-28.1,15.36h-.35c5.12-10.5,15.44-15.5,27.08-15.94,12.74-.47,21.44,5.82,27.17,15.94Z"/>
            <path class="cls-11" d="m234.26,467.81c-12.16-9.95-30.1-7.71-38.63,5.38h-.26c7.8-12.89,26.26-16.9,39-5.5.09.06-.03.17-.12.12Z"/>
            <path class="cls-11" d="m239.15,473.19h-.52c-.44-.84-.93-1.69-1.48-2.5-.09-.12.12-.23.23-.12.61.81,1.22,1.72,1.77,2.62Z"/>
            <path class="cls-11" d="m233.01,473.19h-.7c-8.73-7.8-21.09-7.91-30.69,0h-.17c9.63-8.12,22.8-8.32,31.56,0Z"/>
          </g>
        </g>
        <rect class="cls-7" x="151.76" y="473.19" width="212.85" height="4.81"/>
      </g>
    </g>
    <rect class="cls-10" x="87.96" y="478" width="561.36" height="18.18"/>
    <path class="cls-4" d="m577.87,431.27s-12.48,46.73-28.8,46.73h-86.39c-16.32,0-28.8-46.73-28.8-46.73h143.98Z"/>
    <path class="cls-1" d="m421.98,447.09s-8.25,30.9-19.04,30.9h-57.13c-10.79,0-19.04-30.9-19.04-30.9h95.22Z"/>
  </g>
</svg>